<?xml version="1.0" encoding="UTF-8" standalone="no"?>
<!DOCTYPE svg PUBLIC "-//W3C//DTD SVG 1.1//EN" "http://www.w3.org/Graphics/SVG/1.1/DTD/svg11.dtd">
<svg width="100%" height="100%" viewBox="0 0 393 46" version="1.1" xmlns="http://www.w3.org/2000/svg" xmlns:xlink="http://www.w3.org/1999/xlink" xml:space="preserve" xmlns:serif="http://www.serif.com/" style="fill-rule:evenodd;clip-rule:evenodd;stroke-linejoin:round;stroke-miterlimit:2;">
    <g transform="matrix(1,0,0,1,-71.8982,-49.4063)">
        <g transform="matrix(0.410844,0,0,0.410844,-106.987,-143.319)">
            <path d="M494.391,469.096C523.381,470.905 546.367,495.022 546.367,524.466C546.367,553.91 523.381,578.028 494.391,579.836L494.391,533.136L497.239,533.136C501.849,533.136 505.908,532.152 509.419,530.184C512.929,528.216 515.65,525.45 517.583,521.887C519.515,518.323 520.481,514.202 520.481,509.521C520.481,504.805 519.515,500.657 517.583,497.076C515.65,493.494 512.929,490.72 509.419,488.752C505.908,486.784 501.849,485.8 497.239,485.8L494.391,485.8L494.391,469.096ZM487.385,469.096L487.385,485.8L467.295,485.8L467.295,563.133L474.954,563.133L474.954,533.136L487.385,533.136L487.385,579.836C458.396,578.028 435.409,553.91 435.409,524.466C435.409,495.022 458.396,470.905 487.385,469.096ZM487.385,492.927L487.385,526.009L474.954,526.009L474.954,492.927L487.385,492.927ZM494.391,492.927L497.611,492.927C500.625,492.927 503.285,493.619 505.589,495.001C507.894,496.384 509.676,498.326 510.934,500.825C512.193,503.325 512.823,506.224 512.823,509.521C512.823,512.783 512.193,515.655 510.934,518.137C509.676,520.619 507.894,522.552 505.589,523.935C503.285,525.317 500.625,526.009 497.611,526.009L494.391,526.009L494.391,492.927Z" style="fill:rgb(235,235,235);"/>
            <g transform="matrix(9.07706,0,0,9.07706,-8264.93,-3956.02)">
                <path d="M971.713,489.346L972.557,489.346L972.557,497.866L971.713,497.866L971.713,489.346ZM972.311,497.081L977.186,497.081L977.186,497.866L972.311,497.866L972.311,497.081Z" style="fill:rgb(240,240,240);fill-rule:nonzero;"/>
            </g>
            <g transform="matrix(9.07706,0,0,9.07706,-8264.93,-3956.02)">
                <path d="M981.029,489.346L982.049,489.346L985.189,497.866L984.252,497.866L981.539,490.231L978.826,497.866L977.889,497.866L981.029,489.346ZM979.336,495.012L983.818,495.012L983.818,495.797L979.336,495.797L979.336,495.012Z" style="fill:rgb(240,240,240);fill-rule:nonzero;"/>
            </g>
            <g transform="matrix(9.07706,0,0,9.07706,-8264.93,-3956.02)">
                <path d="M986.478,489.346L987.328,489.346L992.273,497.022L991.928,496.788L991.928,489.346L992.771,489.346L992.771,497.86L991.91,497.86L986.865,490.126L987.322,490.459L987.322,497.86L986.478,497.86L986.478,489.346Z" style="fill:rgb(240,240,240);fill-rule:nonzero;"/>
            </g>
            <g transform="matrix(9.07706,0,0,9.07706,-8264.93,-3956.02)">
                <path d="M994.881,489.346L995.725,489.346L995.725,497.866L994.881,497.866L994.881,489.346ZM995.461,497.081L1000.35,497.081L1000.35,497.866L995.461,497.866L995.461,497.081ZM995.461,493.243L999.709,493.243L999.709,494.028L995.461,494.028L995.461,493.243ZM995.461,489.346L1000.35,489.346L1000.35,490.131L995.461,490.131L995.461,489.346Z" style="fill:rgb(240,240,240);fill-rule:nonzero;"/>
            </g>
            <g transform="matrix(9.07706,0,0,9.07706,-8264.93,-3956.02)">
                <path d="M1003.7,489.692L1004.54,489.692L1004.54,497.866L1003.7,497.866L1003.7,489.692ZM1001.12,489.346L1007.13,489.346L1007.13,490.131L1001.12,490.131L1001.12,489.346Z" style="fill:rgb(240,240,240);fill-rule:nonzero;"/>
            </g>
            <g transform="matrix(9.07706,0,0,9.07706,-8264.93,-3956.02)">
                <path d="M1010.88,497.954C1010.25,497.954 1009.71,497.831 1009.26,497.584C1008.82,497.338 1008.48,496.981 1008.24,496.512C1008.01,496.043 1007.89,495.477 1007.89,494.813L1007.89,492.399C1007.89,491.735 1008.01,491.168 1008.24,490.7C1008.48,490.231 1008.82,489.874 1009.26,489.627C1009.71,489.381 1010.25,489.258 1010.88,489.258C1011.52,489.258 1012.06,489.381 1012.5,489.627C1012.95,489.874 1013.29,490.231 1013.52,490.7C1013.76,491.168 1013.88,491.735 1013.88,492.399L1013.88,494.813C1013.88,495.477 1013.76,496.043 1013.52,496.512C1013.29,496.981 1012.95,497.338 1012.5,497.584C1012.06,497.831 1011.52,497.954 1010.88,497.954ZM1010.88,497.168C1011.34,497.168 1011.72,497.078 1012.05,496.896C1012.37,496.714 1012.61,496.451 1012.78,496.105C1012.95,495.759 1013.03,495.342 1013.03,494.854L1013.03,492.358C1013.03,491.87 1012.95,491.453 1012.78,491.107C1012.61,490.761 1012.37,490.498 1012.05,490.316C1011.72,490.134 1011.34,490.043 1010.88,490.043C1010.43,490.043 1010.04,490.134 1009.72,490.316C1009.4,490.498 1009.15,490.761 1008.98,491.107C1008.82,491.453 1008.73,491.87 1008.73,492.358L1008.73,494.854C1008.73,495.342 1008.82,495.759 1008.98,496.105C1009.15,496.451 1009.4,496.714 1009.72,496.896C1010.04,497.078 1010.43,497.168 1010.88,497.168Z" style="fill:rgb(240,240,240);fill-rule:nonzero;"/>
            </g>
            <g transform="matrix(9.07706,0,0,9.07706,-8264.93,-3956.02)">
                <path d="M1022.05,489.346L1022.94,489.346L1022.94,497.866L1022.09,497.866L1022.09,490.547L1022.18,490.922L1019.61,496.682L1019.02,496.682L1016.45,491.04L1016.54,490.547L1016.54,497.866L1015.69,497.866L1015.69,489.346L1016.58,489.346L1019.31,495.499L1022.05,489.346Z" style="fill:rgb(240,240,240);fill-rule:nonzero;"/>
            </g>
            <g transform="matrix(9.07706,0,0,9.07706,-8264.93,-3956.02)">
                <path d="M1027.25,489.346L1028.27,489.346L1031.41,497.866L1030.47,497.866L1027.76,490.231L1025.05,497.866L1024.11,497.866L1027.25,489.346ZM1025.56,495.012L1030.04,495.012L1030.04,495.797L1025.56,495.797L1025.56,495.012Z" style="fill:rgb(240,240,240);fill-rule:nonzero;"/>
            </g>
            <g transform="matrix(9.07706,0,0,9.07706,-8264.93,-3956.02)">
                <path d="M1032.7,489.346L1033.55,489.346L1038.49,497.022L1038.15,496.788L1038.15,489.346L1038.99,489.346L1038.99,497.86L1038.13,497.86L1033.08,490.126L1033.54,490.459L1033.54,497.86L1032.7,497.86L1032.7,489.346Z" style="fill:rgb(240,240,240);fill-rule:nonzero;"/>
            </g>
            <g transform="matrix(9.07706,0,0,9.07706,-8264.93,-3956.02)">
                <path d="M1042.98,489.692L1043.82,489.692L1043.82,497.866L1042.98,497.866L1042.98,489.692ZM1040.4,489.346L1046.41,489.346L1046.41,490.131L1040.4,490.131L1040.4,489.346Z" style="fill:rgb(240,240,240);fill-rule:nonzero;"/>
            </g>
            <g transform="matrix(9.07706,0,0,9.07706,-8264.93,-3956.02)">
                <rect x="1047.76" y="489.346" width="0.844" height="8.52" style="fill:rgb(240,240,240);fill-rule:nonzero;"/>
            </g>
            <g transform="matrix(9.07706,0,0,9.07706,-8264.93,-3956.02)">
                <path d="M1053.67,497.954C1053.08,497.954 1052.57,497.823 1052.12,497.561C1051.67,497.299 1051.32,496.928 1051.08,496.448C1050.83,495.967 1050.71,495.411 1050.71,494.778L1050.71,492.44C1050.71,491.807 1050.83,491.251 1051.08,490.77C1051.32,490.29 1051.67,489.918 1052.12,489.654C1052.57,489.39 1053.08,489.258 1053.67,489.258C1054.16,489.258 1054.61,489.358 1055.02,489.557C1055.43,489.756 1055.77,490.039 1056.05,490.404C1056.33,490.769 1056.51,491.192 1056.61,491.672L1055.77,491.672C1055.67,491.352 1055.52,491.069 1055.31,490.823C1055.09,490.577 1054.84,490.385 1054.56,490.249C1054.27,490.112 1053.98,490.043 1053.67,490.043C1053.25,490.043 1052.88,490.143 1052.56,490.342C1052.24,490.542 1051.99,490.822 1051.82,491.183C1051.64,491.544 1051.55,491.963 1051.55,492.44L1051.55,494.778C1051.55,495.254 1051.64,495.673 1051.82,496.035C1051.99,496.396 1052.24,496.675 1052.56,496.873C1052.88,497.07 1053.25,497.168 1053.67,497.168C1053.98,497.168 1054.27,497.104 1054.56,496.975C1054.84,496.846 1055.09,496.659 1055.31,496.413C1055.52,496.167 1055.67,495.876 1055.77,495.54L1056.61,495.54C1056.51,496.02 1056.32,496.443 1056.05,496.808C1055.77,497.173 1055.43,497.456 1055.02,497.655C1054.61,497.854 1054.16,497.954 1053.67,497.954Z" style="fill:rgb(240,240,240);fill-rule:nonzero;"/>
            </g>
            <g transform="matrix(9.07706,0,0,9.07706,-8264.93,-3956.02)">
                <path d="M1060.63,497.954C1060.22,497.954 1059.84,497.915 1059.47,497.836C1059.1,497.758 1058.76,497.641 1058.44,497.485C1058.12,497.329 1057.82,497.133 1057.55,496.899L1058.06,496.231C1058.41,496.543 1058.81,496.778 1059.23,496.934C1059.66,497.09 1060.13,497.168 1060.63,497.168C1061.37,497.168 1061.93,497.024 1062.33,496.735C1062.73,496.446 1062.93,496.04 1062.93,495.516L1062.93,495.51C1062.93,495.186 1062.85,494.926 1062.67,494.731C1062.5,494.536 1062.27,494.389 1062,494.292C1061.72,494.194 1061.37,494.104 1060.93,494.022C1060.92,494.018 1060.91,494.015 1060.89,494.013C1060.88,494.011 1060.87,494.008 1060.85,494.004L1060.68,493.969C1060.08,493.856 1059.61,493.738 1059.25,493.615C1058.89,493.492 1058.58,493.283 1058.33,492.988C1058.08,492.693 1057.95,492.284 1057.95,491.76L1057.95,491.754C1057.95,491.227 1058.07,490.777 1058.31,490.404C1058.54,490.031 1058.89,489.747 1059.34,489.551C1059.79,489.356 1060.34,489.258 1060.97,489.258C1061.28,489.258 1061.57,489.292 1061.87,489.358C1062.16,489.424 1062.45,489.523 1062.74,489.654C1063.03,489.785 1063.31,489.95 1063.59,490.149L1063.1,490.811C1062.73,490.553 1062.37,490.361 1062.02,490.234C1061.67,490.107 1061.32,490.043 1060.97,490.043C1060.28,490.043 1059.74,490.19 1059.36,490.483C1058.97,490.776 1058.78,491.188 1058.78,491.719L1058.78,491.725C1058.78,492.045 1058.88,492.298 1059.07,492.484C1059.26,492.669 1059.5,492.807 1059.78,492.897C1060.07,492.987 1060.45,493.081 1060.94,493.178C1060.96,493.182 1060.98,493.186 1061,493.19C1061.01,493.194 1061.03,493.198 1061.05,493.202C1061.07,493.206 1061.1,493.21 1061.12,493.216C1061.14,493.222 1061.16,493.227 1061.19,493.231C1061.72,493.34 1062.17,493.465 1062.52,493.606C1062.88,493.747 1063.17,493.966 1063.41,494.265C1063.64,494.564 1063.76,494.967 1063.76,495.475L1063.76,495.487C1063.76,496.006 1063.64,496.451 1063.39,496.82C1063.15,497.189 1062.79,497.47 1062.33,497.664C1061.86,497.857 1061.3,497.954 1060.63,497.954Z" style="fill:rgb(240,240,240);fill-rule:nonzero;"/>
            </g>
        </g>
    </g>
</svg>
